<svg id="apple" xmlns="http://www.w3.org/2000/svg" width="40" height="40" viewBox="0 0 40 40">
  <defs>
    <style>
      .cls-1 {
        fill: #333;
      }

      .cls-2 {
        fill: #fff;
      }

      .cls-3 {
        fill: #ccc;
      }
    </style>
  </defs>
  <circle id="Ellipse_17" data-name="Ellipse 17" class="cls-1" cx="20" cy="20" r="20"/>
  <path id="Path_36" data-name="Path 36" class="cls-2" d="M107.927,165.734a4.739,4.739,0,0,1-2.539-1.506,18.026,18.026,0,0,1-3.2-5.073,16.893,16.893,0,0,1-1.375-6.667,9.545,9.545,0,0,1,1.181-4.73,6.966,6.966,0,0,1,4.6-3.467,4.729,4.729,0,0,1,2.45-.027c.811.24,1.61.523,2.406.811a2.7,2.7,0,0,0,2.09.116c.476-.206.97-.368,1.457-.548a7.833,7.833,0,0,1,2.463-.591,7.089,7.089,0,0,1,4.546,1.352,5.873,5.873,0,0,1,1.415,1.492c-.053.04-.094.074-.138.1a7.334,7.334,0,0,0-1.544,1.421,6.081,6.081,0,0,0-1.315,4.959,5.978,5.978,0,0,0,1.653,3.331,8.608,8.608,0,0,0,2.193,1.516c-.124.295-.368.771-.487,1.068a16.389,16.389,0,0,1-1.987,3.549,10.151,10.151,0,0,1-1.92,2.17,3.413,3.413,0,0,1-2.407.766,5.542,5.542,0,0,1-1.951-.551,5.619,5.619,0,0,0-4.171-.3c-.356.111-.692.286-1.047.4A9.332,9.332,0,0,1,107.927,165.734Z" transform="translate(-92.877 -132.707)"/>
  <g id="Group_34" data-name="Group 34" transform="translate(19.556 4.4)">
    <path id="Path_37" data-name="Path 37" class="cls-3" d="M258.953,156.711a5.977,5.977,0,0,1-1.653-3.331,6.081,6.081,0,0,1,1.315-4.959A7.333,7.333,0,0,1,260.16,147c.043-.03.084-.063.138-.1a5.873,5.873,0,0,0-1.415-1.492,7.09,7.09,0,0,0-4.546-1.352,7.836,7.836,0,0,0-2.463.591c-.487.179-.982.342-1.457.548a2.035,2.035,0,0,1-1.033.155v19.341a5.72,5.72,0,0,1,3.012.543,5.541,5.541,0,0,0,1.951.551,3.413,3.413,0,0,0,2.407-.766,10.151,10.151,0,0,0,1.92-2.17,16.389,16.389,0,0,0,1.987-3.549c.118-.3.362-.773.487-1.068A8.608,8.608,0,0,1,258.953,156.711Z" transform="translate(-249.307 -137.107)"/>
    <path id="Path_38" data-name="Path 38" class="cls-3" d="M254.174,55.888a9.487,9.487,0,0,1-.02,1.365,6.31,6.31,0,0,1-2.335,4.077,4.752,4.752,0,0,1-3.356,1.161,4.052,4.052,0,0,1,.05-1.478,6.414,6.414,0,0,1,2.785-4.1,6.112,6.112,0,0,1,2.518-.989C253.86,55.923,254.1,55.888,254.174,55.888Z" transform="translate(-248.417 -55.888)"/>
  </g>
</svg>
