<svg id="google-plus" xmlns="http://www.w3.org/2000/svg" width="40.667" height="40.667" viewBox="0 0 40.667 40.667">
  <defs>
    <style>
      .cls-1 {
        fill: #dd4b39;
      }

      .cls-2 {
        fill: #fff;
      }
    </style>
  </defs>
  <path id="Path_32" data-name="Path 32" class="cls-1" d="M20.333,0A20.333,20.333,0,1,1,0,20.333,20.393,20.393,0,0,1,20.333,0Z"/>
  <g id="Group_29" data-name="Group 29" transform="translate(7.768 12.374)">
    <path id="Path_33" data-name="Path 33" class="cls-2" d="M191.2,121.079v2.288h2.287v2.288H191.2v2.288h-2.288v-2.288h-2.288v-2.288h2.288v-2.288Z" transform="translate(-168.342 -116.551)"/>
    <path id="Path_34" data-name="Path 34" class="cls-2" d="M57.916,102.319a8.171,8.171,0,0,1,.127-11.437,7.84,7.84,0,0,1,8.515-1.652l1.144.635,1.271.89-2.033,2.033-.762-.508a4.853,4.853,0,0,0-5.973.762,5.335,5.335,0,0,0,0,7.371,4.913,4.913,0,0,0,7.117,0,4.056,4.056,0,0,0,1.144-2.033v-.254H63.889V95.584h7.244l.127.635V98a7.09,7.09,0,0,1-1.906,4.448A8.422,8.422,0,0,1,57.916,102.319Z" transform="translate(-55.644 -88.641)"/>
  </g>
</svg>
