<svg id="linkedin" xmlns="http://www.w3.org/2000/svg" width="40.65" height="40.65" viewBox="0 0 40.65 40.65">
  <defs>
    <style>
      .cls-1 {
        fill: #0e76a8;
      }

      .cls-2 {
        fill: #fff;
      }
    </style>
  </defs>
  <path id="Path_30" data-name="Path 30" class="cls-1" d="M20.325,0A20.325,20.325,0,1,1,0,20.325,20.325,20.325,0,0,1,20.325,0Z"/>
  <path id="Path_31" data-name="Path 31" class="cls-2" d="M81.956,92.46h4.206V78.442H81.956Zm16.385-14.5a6.313,6.313,0,0,0-5.163,2.391V78.4H88.956V92.46h4.221V84.855a3.339,3.339,0,0,1,3.317-3.175c1.845,0,2.3,1.568,2.3,3.136v7.644H103V84.5C103,78.976,100.383,77.957,98.34,77.957Zm-14.3-.915a2.106,2.106,0,1,0-2.106-2.106A2.107,2.107,0,0,0,84.039,77.041Z" transform="translate(-71.561 -63.496)"/>
</svg>
